<?xml version="1.0" encoding="utf-8"?>
<!-- Generator: Adobe Illustrator 18.1.1, SVG Export Plug-In . SVG Version: 6.00 Build 0)  -->
<svg version="1.1" id="Layer_1" xmlns="http://www.w3.org/2000/svg" xmlns:xlink="http://www.w3.org/1999/xlink" x="0px" y="0px"
	 viewBox="0 187 612 674" enable-background="new 0 187 612 674" xml:space="preserve">
<g id="raining" class="raining" ref="raining">
	<g>
		<path fill="#D0E8F9" d="M153.6,743.6c-5.7-3.2-9.1,6.9-11.1,10.4c-1.9,3.5-8.2,11.2-3.4,14.6c5.8,4.1,9.6-6.6,11.5-10.1
			C152.5,754.9,159.2,746.7,153.6,743.6C151.3,742.3,155.8,744.8,153.6,743.6z"/>
		<path fill="#D0E8F9" d="M166.4,710.8c-2.5,4.5-5,8.9-7.4,13.4c-0.8,1.5-2.1,3.2-2.5,4.8c-1.4,5.5,5.5,7.6,8.5,3.5
			c3-4,5-9,7.4-13.4c0.8-1.5,2.1-3.2,2.5-4.8C176.2,709.3,169,706.1,166.4,710.8z"/>
		<path fill="#D0E8F9" d="M169.6,782.4c-5.7-3.2-9.1,6.9-11.1,10.4c-1.9,3.5-8.3,11.1-3.4,14.6c5.8,4.1,9.6-6.6,11.5-10.1
			S175.2,785.6,169.6,782.4C167.3,781.2,171.8,783.7,169.6,782.4z"/>
		<path fill="#D0E8F9" d="M188.7,747.9c-5.7-3.2-9.1,6.9-11.1,10.4c-1.9,3.5-8.2,11.1-3.4,14.6c5.8,4.1,9.6-6.6,11.5-10.1
			C187.7,759.3,194.3,751.1,188.7,747.9C186.4,746.7,190.9,749.2,188.7,747.9z"/>
		<path fill="#D0E8F9" d="M118.5,739.1c-5.7-3.2-9.1,6.9-11.1,10.4c-1.9,3.5-8.2,11.1-3.4,14.6c5.8,4.1,9.6-6.6,11.5-10.1
			C117.4,750.4,124.1,742.3,118.5,739.1C116.2,737.8,120.7,740.3,118.5,739.1z"/>
		<path fill="#D0E8F9" d="M99.4,773.6c-5.7-3.2-9.1,6.9-11.1,10.4c-1.9,3.5-8.3,11.1-3.4,14.6c5.8,4.1,9.6-6.6,11.5-10.1
			C98.3,784.9,105,776.8,99.4,773.6C97.1,772.3,101.6,774.8,99.4,773.6z"/>
		<path fill="#D0E8F9" d="M134.5,777.9c-5.7-3.2-9.1,6.9-11.1,10.4c-1.9,3.5-8.3,11.2-3.4,14.6c5.8,4.1,9.6-6.6,11.5-10.1
			S140.1,781.2,134.5,777.9C132.2,776.8,136.7,779.3,134.5,777.9z"/>
		<path fill="#D0E8F9" d="M115.3,812.4c-5.7-3.2-9.1,6.9-11.1,10.4c-1.9,3.5-8.2,11.2-3.4,14.6c5.8,4.1,9.6-6.6,11.5-10.1
			C114.3,823.8,121,815.7,115.3,812.4C113.1,811.3,117.6,813.8,115.3,812.4z"/>
		<path fill="#D0E8F9" d="M137.6,704.6c-5.7-3.2-9.1,6.9-11.1,10.4c-1.9,3.5-8.2,11.1-3.4,14.6c5.8,4.1,9.6-6.6,11.5-10.1
			C136.6,716.1,143.3,707.8,137.6,704.6C135.3,703.3,139.8,705.8,137.6,704.6z"/>
		<path fill="#D0E8F9" d="M223.8,752.3c-5.7-3.2-9.1,6.9-11.1,10.4c-1.9,3.5-8.2,11.2-3.4,14.6c5.8,4.1,9.6-6.6,11.5-10.1
			S229.4,755.6,223.8,752.3C221.5,751.2,226,753.7,223.8,752.3z"/>
		<path fill="#D0E8F9" d="M242.9,717.8c-5.7-3.1-9.1,6.9-11.1,10.4c-1.9,3.5-8.3,11.2-3.4,14.6c5.8,4.1,9.6-6.6,11.5-10.1
			C241.9,729.3,248.6,721.1,242.9,717.8C240.6,716.7,245.1,719.2,242.9,717.8z"/>
		<path fill="#D0E8F9" d="M196.8,665.4c5.8,3.2,9.5-7.6,11.5-11.1s8.5-11.8,2.1-14.4c-5.5-2.3-8.7,7.1-10.6,10.6
			C197.8,654.1,191.1,662.3,196.8,665.4C197.5,665.8,194.6,664.2,196.8,665.4z"/>
		<path fill="#D0E8F9" d="M215.9,630.9c5.8,3.2,9.5-7.6,11.5-11.1c1.9-3.5,8.5-11.8,2.1-14.4c-5.5-2.3-8.7,7.1-10.6,10.6
			C217,619.6,210.3,627.8,215.9,630.9C216.7,631.3,213.7,629.8,215.9,630.9z"/>
		<path fill="#D0E8F9" d="M207.8,713.4c-5.7-3.2-9.1,6.9-11.1,10.4c-1.9,3.5-8.3,11.1-3.4,14.6c5.8,4.1,9.6-6.6,11.5-10.1
			C206.8,724.8,213.5,716.7,207.8,713.4C205.5,712.3,210,714.8,207.8,713.4z"/>
		<path fill="#D0E8F9" d="M220.6,680.8c-2.5,4.5-4.9,8.9-7.4,13.4c-0.8,1.5-2.1,3.2-2.5,4.8c-1.4,5.5,5.5,7.6,8.5,3.5
			c3-4,5-9,7.4-13.4c0.8-1.5,2.1-3.2,2.5-4.8C230.4,679.2,223.2,676.1,220.6,680.8z"/>
		<path fill="#D0E8F9" d="M161.7,661.1c5.8,3.2,9.5-7.6,11.5-11.1s8.5-11.8,2.1-14.4c-5.5-2.3-8.7,7.1-10.6,10.6
			C162.7,649.6,156,657.8,161.7,661.1C162.4,661.4,159.5,659.8,161.7,661.1z"/>
		<path fill="#D0E8F9" d="M142.6,695.4c5.8,3.2,9.5-7.6,11.5-11.1s8.5-11.8,2.1-14.4c-5.5-2.3-8.7,7.1-10.6,10.6
			C143.6,684.1,136.9,692.3,142.6,695.4C143.3,695.8,140.4,694.3,142.6,695.4z"/>
		<path fill="#D0E8F9" d="M89.7,723.2c-5.7-3.2-9.1,6.9-11.1,10.4c-1.9,3.5-8.2,11.2-3.4,14.6c5.8,4.1,9.6-6.6,11.5-10.1
			C88.7,734.6,95.4,726.3,89.7,723.2C87.5,721.8,92,724.3,89.7,723.2z"/>
		<path fill="#D0E8F9" d="M94.8,714.1c5.8,3.2,9.5-7.6,11.5-11.1s8.5-11.8,2.1-14.4c-5.5-2.3-8.7,7.1-10.6,10.6
			C95.8,702.7,89.1,710.8,94.8,714.1C95.5,714.4,92.5,712.8,94.8,714.1z"/>
		<path fill="#D0E8F9" d="M133,645.1c5.8,3.2,9.5-7.6,11.5-11.1s8.5-11.8,2.1-14.4c-5.5-2.3-8.7,7.1-10.6,10.6
			C134,633.7,127.3,641.9,133,645.1C133.7,645.4,130.8,643.8,133,645.1z"/>
		<path fill="#D0E8F9" d="M113.9,679.6c5.8,3.2,9.5-7.6,11.5-11.1s8.5-11.8,2.1-14.4c-5.5-2.3-8.7,7.1-10.6,10.6
			C114.9,668.2,108.2,676.4,113.9,679.6C114.6,679.9,111.6,678.3,113.9,679.6z"/>
		<path fill="#D0E8F9" d="M185.5,676.3c-2.5,4.5-4.9,8.9-7.4,13.4c-0.8,1.5-2.1,3.2-2.5,4.8c-1.4,5.5,5.5,7.6,8.5,3.5
			c3-4,5-9,7.4-13.4c0.8-1.5,2.1-3.2,2.5-4.8C195.3,674.8,188.1,671.7,185.5,676.3z"/>
		<path fill="#D0E8F9" d="M180.8,626.6c5.8,3.2,9.5-7.6,11.5-11.1s8.5-11.8,2.1-14.4c-5.5-2.3-8.7,7.1-10.6,10.6
			S175.2,623.3,180.8,626.6C181.6,626.9,178.6,625.3,180.8,626.6z"/>
	</g>
	<g>
		<path fill="#D0E8F9" d="M324.3,704.2c-5.7-3.2-9.1,6.9-11.1,10.4c-1.9,3.5-8.2,11.2-3.4,14.6c5.8,4.1,9.6-6.6,11.5-10.1
			C323.3,715.6,330,707.3,324.3,704.2C322,702.9,326.5,705.3,324.3,704.2z"/>
		<path fill="#D0E8F9" d="M337.1,671.4c-2.5,4.5-5,8.9-7.4,13.4c-0.8,1.5-2.1,3.2-2.5,4.8c-1.4,5.5,5.5,7.6,8.5,3.5
			c3-4,5-9,7.4-13.4c0.8-1.5,2.1-3.2,2.5-4.8C346.9,669.8,339.7,666.8,337.1,671.4z"/>
		<path fill="#D0E8F9" d="M340.3,743.1c-5.7-3.2-9.1,6.9-11.1,10.4c-1.9,3.5-8.3,11.1-3.4,14.6c5.8,4.1,9.6-6.6,11.5-10.1
			C339.2,754.4,346,746.3,340.3,743.1C338,741.8,342.5,744.3,340.3,743.1z"/>
		<path fill="#D0E8F9" d="M359.4,708.6c-5.7-3.2-9.1,6.9-11.1,10.4c-1.9,3.5-8.2,11.1-3.4,14.6c5.8,4.1,9.6-6.6,11.5-10.1
			C358.4,719.9,365.1,711.8,359.4,708.6C357.1,707.3,361.6,709.8,359.4,708.6z"/>
		<path fill="#D0E8F9" d="M289.2,699.8c-5.7-3.2-9.1,6.9-11.1,10.4c-1.9,3.5-8.2,11.1-3.4,14.6c5.8,4.1,9.6-6.6,11.5-10.1
			C288.2,711.2,294.9,702.8,289.2,699.8C286.9,698.4,291.4,700.9,289.2,699.8z"/>
		<path fill="#D0E8F9" d="M270.1,734.2c-5.7-3.2-9.1,6.9-11.1,10.4c-1.9,3.5-8.3,11.1-3.4,14.6c5.8,4.1,9.6-6.6,11.5-10.1
			C269.1,745.7,275.7,737.3,270.1,734.2C267.8,732.9,272.3,735.4,270.1,734.2z"/>
		<path fill="#D0E8F9" d="M305.2,738.7c-5.7-3.2-9.1,6.9-11.1,10.4c-1.9,3.5-8.3,11.2-3.4,14.6c5.8,4.1,9.6-6.6,11.5-10.1
			C304.2,750.1,310.8,741.8,305.2,738.7C302.9,737.3,307.4,739.8,305.2,738.7z"/>
		<path fill="#D0E8F9" d="M286,773.2c-5.7-3.2-9.1,6.9-11.1,10.4c-1.9,3.5-8.2,11.2-3.4,14.6c5.8,4.1,9.6-6.6,11.5-10.1
			C285,784.6,291.7,776.3,286,773.2C283.8,771.8,288.3,774.3,286,773.2z"/>
		<path fill="#D0E8F9" d="M308.3,665.3c-5.7-3.2-9.1,6.9-11.1,10.4c-1.9,3.5-8.2,11.1-3.4,14.6c5.8,4.1,9.6-6.6,11.5-10.1
			C307.3,676.7,314,668.3,308.3,665.3C306,663.9,310.5,666.4,308.3,665.3z"/>
		<path fill="#D0E8F9" d="M394.5,713.1c-5.7-3.2-9.1,6.9-11.1,10.4c-1.9,3.5-8.2,11.2-3.4,14.6c5.8,4.1,9.6-6.6,11.5-10.1
			C393.5,724.4,400.2,716.2,394.5,713.1C392.2,711.8,396.7,714.3,394.5,713.1z"/>
		<path fill="#D0E8F9" d="M413.6,678.6c-5.7-3.1-9.1,6.9-11.1,10.4c-1.9,3.5-8.3,11.2-3.4,14.6c5.8,4.1,9.6-6.6,11.5-10.1
			C412.6,689.9,419.3,681.8,413.6,678.6C411.3,677.3,415.8,679.8,413.6,678.6z"/>
		<path fill="#D0E8F9" d="M367.5,626.1c5.8,3.2,9.5-7.6,11.5-11.1s8.5-11.8,2.1-14.4c-5.5-2.3-8.7,7.1-10.6,10.6
			S361.9,622.9,367.5,626.1C368.3,626.4,365.3,624.8,367.5,626.1z"/>
		<path fill="#D0E8F9" d="M386.7,591.7c5.8,3.2,9.5-7.6,11.5-11.1c1.9-3.5,8.5-11.8,2.1-14.4c-5.5-2.3-8.7,7.1-10.6,10.6
			C387.7,580.2,381,588.4,386.7,591.7C387.4,592.1,384.4,590.3,386.7,591.7z"/>
		<path fill="#D0E8F9" d="M378.5,674.2c-5.7-3.2-9.1,6.9-11.1,10.4c-1.9,3.5-8.3,11.1-3.4,14.6c5.8,4.1,9.6-6.6,11.5-10.1
			C377.5,685.6,384.2,677.3,378.5,674.2C376.2,672.8,380.7,675.3,378.5,674.2z"/>
		<path fill="#D0E8F9" d="M391.3,641.4c-2.5,4.5-4.9,8.9-7.4,13.4c-0.8,1.5-2.1,3.2-2.5,4.8c-1.4,5.5,5.5,7.6,8.5,3.5
			c3-4,5-9,7.4-13.4c0.8-1.5,2.1-3.2,2.5-4.8C401.1,639.8,393.9,636.7,391.3,641.4z"/>
		<path fill="#D0E8F9" d="M332.4,621.7c5.8,3.2,9.5-7.6,11.5-11.1s8.5-11.8,2.1-14.4c-5.5-2.3-8.7,7.1-10.6,10.6
			S326.8,618.6,332.4,621.7C333.2,622.1,330.2,620.4,332.4,621.7z"/>
		<path fill="#D0E8F9" d="M313.3,656.2c5.8,3.2,9.5-7.6,11.5-11.1s8.5-11.8,2.1-14.4c-5.5-2.3-8.7,7.1-10.6,10.6
			S307.7,652.9,313.3,656.2C314,656.6,311.1,654.8,313.3,656.2z"/>
		<path fill="#D0E8F9" d="M260.4,683.8c-5.7-3.2-9.1,6.9-11.1,10.4c-1.9,3.5-8.2,11.2-3.4,14.6c5.8,4.1,9.6-6.6,11.5-10.1
			C259.4,695.3,266.1,686.9,260.4,683.8C258.2,682.6,262.7,685.1,260.4,683.8z"/>
		<path fill="#D0E8F9" d="M265.5,674.7c5.8,3.2,9.5-7.6,11.5-11.1s8.5-11.8,2.1-14.4c-5.5-2.3-8.7,7.1-10.6,10.6
			C266.5,663.3,259.8,671.6,265.5,674.7C266.2,675.1,263.2,673.4,265.5,674.7z"/>
		<path fill="#D0E8F9" d="M303.7,605.8c5.8,3.2,9.5-7.6,11.5-11.1s8.5-11.8,2.1-14.4c-5.5-2.3-8.7,7.1-10.6,10.6
			C304.7,594.3,298,602.6,303.7,605.8C304.4,606.2,301.5,604.4,303.7,605.8z"/>
		<path fill="#D0E8F9" d="M284.6,640.3c5.8,3.2,9.5-7.6,11.5-11.1s8.5-11.8,2.1-14.4c-5.5-2.3-8.7,7.1-10.6,10.6
			C285.6,628.8,278.9,637.1,284.6,640.3C285.3,640.7,282.4,638.9,284.6,640.3z"/>
		<path fill="#D0E8F9" d="M356.2,637.1c-2.5,4.5-4.9,8.9-7.4,13.4c-0.8,1.5-2.1,3.2-2.5,4.8c-1.4,5.5,5.5,7.6,8.5,3.5
			c3-4,5-9,7.4-13.4c0.8-1.5,2.1-3.2,2.5-4.8C366,635.4,358.8,632.3,356.2,637.1z"/>
		<path fill="#D0E8F9" d="M351.6,587.2c5.8,3.2,9.5-7.6,11.5-11.1s8.5-11.8,2.1-14.4c-5.5-2.3-8.7,7.1-10.6,10.6
			C352.6,575.8,345.9,584,351.6,587.2C352.3,587.6,349.3,585.9,351.6,587.2z"/>
		<path fill="#D0E8F9" d="M245.7,640.9c-5.7-3.2-9.1,6.9-11.1,10.4c-1.9,3.5-8.2,11.2-3.4,14.6c5.8,4.1,9.6-6.6,11.5-10.1
			C244.7,652.3,251.4,644.1,245.7,640.9C243.5,639.7,248,642.2,245.7,640.9z"/>
		<path fill="#D0E8F9" d="M250.8,631.8c5.8,3.2,9.5-7.6,11.5-11.1s8.5-11.8,2.1-14.4c-5.5-2.3-8.7,7.1-10.6,10.6
			C251.8,620.4,245.1,628.7,250.8,631.8C251.5,632.3,248.5,630.6,250.8,631.8z"/>
		<path fill="#D0E8F9" d="M269.9,597.3c5.8,3.2,9.5-7.6,11.5-11.1s8.5-11.8,2.1-14.4c-5.5-2.3-8.7,7.1-10.6,10.6
			C270.9,585.9,264.2,594.2,269.9,597.3C270.6,597.8,267.6,596.1,269.9,597.3z"/>
	</g>
</g>
<g id="snowing" class="snowing">
	<polygon fill="#E4E6E5" points="168.4,687.3 153.6,695.9 138.7,687.3 138.7,670.1 153.6,661.4 168.4,670.1 	"/>
	<g>
		<polygon fill="#E4E6E5" points="239.1,716.7 227,723.7 214.8,716.7 214.8,702.6 227,695.6 239.1,702.6 		"/>
		<polygon fill="#E4E6E5" points="152.3,752.8 143.1,758.2 133.8,752.8 133.8,742.2 143.1,736.8 152.3,742.2 		"/>
		<polygon fill="#E4E6E5" points="210.2,771.8 201,777.2 191.7,771.8 191.7,761.2 201,755.8 210.2,761.2 		"/>
		<polygon fill="#E4E6E5" points="97.8,717.3 88.6,722.8 79.4,717.3 79.4,706.7 88.6,701.3 97.8,706.7 		"/>
	</g>
	<polygon fill="#E4E6E5" points="262.5,768.7 247.6,777.3 232.7,768.7 232.7,751.3 247.6,742.8 262.5,751.3 	"/>
	<g>
		<polygon fill="#E4E6E5" points="290.1,702.9 277.9,709.9 265.8,702.9 265.8,688.8 277.9,681.8 290.1,688.8 		"/>
		<polygon fill="#E4E6E5" points="359.3,806.3 350,811.7 340.8,806.3 340.8,795.6 350,790.3 359.3,795.6 		"/>
		<polygon fill="#E4E6E5" points="245.4,813.2 236.2,818.4 227,813.2 227,802.4 236.2,797.2 245.4,802.4 		"/>
		<polygon fill="#E4E6E5" points="308.5,782.6 299.3,787.8 290.1,782.6 290.1,771.8 299.3,766.4 308.5,771.8 		"/>
	</g>
	<polygon fill="#E4E6E5" points="434.3,781.7 419.5,790.3 404.6,781.7 404.6,764.3 419.5,755.8 434.3,764.3 	"/>
	<g>
		<polygon fill="#E4E6E5" points="410.9,687.3 398.8,694.3 386.6,687.3 386.6,673.2 398.8,666.2 410.9,673.2 		"/>
		<polygon fill="#E4E6E5" points="324.1,723.4 314.9,728.8 305.6,723.4 305.6,712.8 314.9,707.3 324.1,712.8 		"/>
		<polygon fill="#E4E6E5" points="382,742.3 372.8,747.8 363.6,742.3 363.6,731.7 372.8,726.3 382,731.7 		"/>
		<polygon fill="#E4E6E5" points="93,773.9 83.8,779.3 74.5,773.9 74.5,763.3 83.8,757.9 93,763.3 		"/>
	</g>
</g>
<polygon id="lighting" class="lighting" fill="#F7CF52" points="385.9,643.3 359.3,693.7 344.7,721.3 372.3,723.1 286.8,839.3 322.7,738.6 
	294.1,736.8 309.2,690.7 326,639.4 "/>
<g id="sun">
	<g id="yellow_x5F_pike">
		<polygon fill="#FFC80A" points="437.3,315 461.6,315 437.3,286.6 436.7,286 436.1,286.6 411.7,315 436.1,315 		"/>
		<polygon fill="#FFC80A" points="330,391 342.2,370 342.8,368.9 355,347.9 318.2,354.9 317.3,354.9 317.6,355.9 		"/>
		<polygon fill="#FFC80A" points="340.9,475.9 328.7,454.8 316.4,490 316.1,490.9 317,491 353.7,497.9 341.5,476.9 		"/>
		<polygon fill="#FFC80A" points="434.8,532.3 410.4,532.3 434.8,560.5 435.4,561.3 436,560.5 460.3,532.3 436,532.3 		"/>
		<polygon fill="#FFC80A" points="543.3,459.5 531.1,480.6 530.5,481.8 518.4,502.8 555.1,495.9 556,495.8 555.7,494.9 		"/>
		<polygon fill="#FFC80A" points="532.4,372.3 544.6,393.4 557,358 557.3,357.1 556.4,357 519.6,350.1 531.8,371.3 		"/>
	</g>
	<g id="orange_x5F_pike">
		<polygon fill="#F7A663" points="382,326.8 403.1,314.6 367.8,302.3 367,302 366.8,303 359.9,339.6 381,327.5 		"/>
		<polygon fill="#F7A663" points="327.2,422 327.2,420.9 327.2,396.5 298.8,420.9 298.1,421.4 298.8,422 327.2,446.4 		"/>
		<polygon fill="#F7A663" points="380.3,516.7 359.2,504.4 366.1,541.2 366.3,542 367.2,541.8 402.4,529.3 381.3,517.2 		"/>
		<polygon fill="#F7A663" points="489.8,518.4 468.7,530.7 504,543 504.8,543.3 505,542.4 511.9,505.8 490.8,517.8 		"/>
		<polygon fill="#F7A663" points="574.5,423.4 546.1,399 546.1,423.4 546.1,424.6 546.1,448.9 574.5,424.6 575.2,424 		"/>
		<polygon fill="#F7A663" points="493,328.8 514.1,341 507.2,304.3 507,303.5 506.2,303.8 470.9,316.1 492,328.3 		"/>
	</g>
	<g id="circle">
		<path fill="#FDD633" d="M436.7,320c-26.7,0-51.1,10.2-69.4,27c18.1-16.6,42.1-26.7,68.6-26.9v205.4c-26.4-0.2-50.5-10.4-68.6-26.9
			c18.3,16.7,42.6,27,69.4,27c56.7,0,102.7-46,102.7-102.7S493.4,320,436.7,320z"/>
		<path fill="#F4CA19" d="M435.9,320c-44.3,0.3-84.1,30.1-97.3,72.3c-11.6,37-0.6,78.5,27.5,105.1c18.8,17.8,44,27.9,69.8,28.1
			c0-23.2,0-46.4,0-69.6c0-37,0-74.1,0-111.1C435.9,336.5,435.8,328.3,435.9,320z"/>
	</g>
</g>
<path id="moon" class="moon" fill="#BDC3C7" d="M515.6,447c-70-11.5-117.4-77.5-105.9-147.5c5.3-32.4,22.3-59.9,46-79.1
	c-68.2-8.6-131.5,38.2-142.7,106.6c-11.5,70,35.9,136,105.9,147.5c37.6,6.2,74-4.7,101.5-26.8C518.8,447.5,517.2,447.3,515.6,447z"
	/>
<g id="darkblue_cloud" class="darkblue_cloud">
	<path fill="#256B87" stroke="#000000" stroke-width="0.5" stroke-miterlimit="10" d="M612,511.6c0,51.7-41.9,93.6-93.6,93.6H251.3
		c-41.4,0-74.9-33.5-74.9-74.9c0-32.2,20.3-59.7,48.8-70.2c-0.1-1.5-0.2-3.1-0.2-4.7c0-38.4,31.1-69.6,69.6-69.6
		c12.3,0,23.9,3.2,33.9,8.8c10.8-47.4,53.2-82.8,103.8-82.8c58.8,0,106.5,47.7,106.5,106.5c0,0.6,0,1.2,0,1.8
		C580.6,429.5,612,466.9,612,511.6z"/>
</g>
<g id="blue_cloud" class="blue_cloud">
	<path fill="#1EA6C6" stroke="#000000" stroke-width="0.5" stroke-miterlimit="10" d="M85.2,460.5c0-0.7,0-1.4,0-2.1
		c0-68.4,55.4-123.8,123.8-123.8c58.9,0,108.2,41.2,120.7,96.3c11.7-6.5,25.1-10.3,39.4-10.3c44.7,0,80.9,36.2,80.9,80.9
		c0,1.8-0.1,3.6-0.2,5.4c33.2,12.3,56.8,44.2,56.8,81.7c0,48.1-39,87.1-87.1,87.1H108.9C48.7,675.7,0,626.9,0,566.8
		C0,514.8,36.5,471.4,85.2,460.5z"/>
</g>
<g id="raising_sun" class="raising_sun">
	<g id="yellow_x5F_pike_1_">
		<polygon fill="#FFC80A" points="308.7,263.8 362.5,263.8 308.7,201.1 307.4,199.6 306.1,201.1 252.3,263.8 306.1,263.8 		"/>
		<polygon fill="#FFC80A" points="71.8,432 98.7,385.4 100,383.1 126.9,336.5 45.7,351.9 43.8,352.1 44.4,354 		"/>
		<polygon fill="#FFC80A" points="95.9,619.3 69,572.7 41.6,650.6 40.9,652.4 42.9,652.8 124.1,668.2 97.2,621.6 		"/>
		<polygon fill="#FFC80A" points="303.3,743.8 249.5,743.8 303.2,806.4 304.6,807.9 305.9,806.4 359.7,743.8 305.9,743.8 		"/>
		<polygon fill="#FFC80A" points="543,583.3 516.1,629.9 514.8,632.2 487.9,678.8 569.1,663.6 571,663.2 570.4,661.3 		"/>
		<polygon fill="#FFC80A" points="518.9,390.4 545.8,436.9 573.2,358.9 573.9,357 571.9,356.8 490.7,341.4 517.6,388 		"/>
	</g>
	<g id="orange_x5F_pike_1_">
		<polygon fill="#F7A663" points="186.6,290 233.2,263.1 155.3,235.8 153.4,235.1 153,237.1 137.8,318.3 184.4,291.5 		"/>
		<polygon fill="#F7A663" points="65.5,500.4 65.5,497.8 65.5,443.9 2.9,497.8 1.3,499 2.9,500.4 65.5,554.2 		"/>
		<polygon fill="#F7A663" points="182.9,709.3 136.3,682.4 151.5,763.6 151.9,765.6 153.8,764.8 231.7,737.6 185.1,710.7 		"/>
		<polygon fill="#F7A663" points="424.7,713.4 378.2,740.3 456.1,767.8 458,768.3 458.4,766.4 473.6,685.3 427,712.2 		"/>
		<polygon fill="#F7A663" points="611.9,503.4 549.3,449.6 549.3,503.4 549.3,506 549.3,559.8 611.9,506 613.5,504.8 		"/>
		<polygon fill="#F7A663" points="431.9,294.5 478.5,321.5 463.3,240.3 462.9,238.3 461,238.9 383.1,266.3 429.7,293.3 		"/>
	</g>
	<g id="circle_1_">
		<path fill="#FDD633" d="M307.4,275c-59.1,0-112.9,22.6-153.3,59.6c40-36.6,93.1-59.1,151.5-59.5v453.9
			c-58.4-0.5-111.5-22.9-151.5-59.5c40.4,37,94.2,59.6,153.3,59.6c125.4,0,227-101.6,227-227S432.8,275,307.4,275z"/>
		<path fill="#F4CA19" d="M305.6,275c-97.9,0.8-185.9,66.4-215,159.6c-25.6,81.7-1.3,173.4,60.8,232.1
			c41.5,39.3,97.1,61.7,154.2,62.1c0-51.2,0-102.5,0-153.7c0-81.8,0-163.6,0-245.4C305.6,311.5,305.6,293.1,305.6,275z"/>
	</g>
</g>
<g id="raising_moon" class="raising_moon">
	<g>
		<path fill="#95A5A5" d="M299.3,232.6c-17.8,0-35.2,1.9-52,5.3C369.2,262.3,461.1,369.9,461.1,499s-91.9,236.8-213.8,261.2
			c16.8,3.4,34.2,5.3,52,5.3c147.2,0,266.5-119.3,266.5-266.5S446.5,232.6,299.3,232.6z"/>
	</g>
	<path fill="#BDC3C7" d="M247,237.7C124.8,262.1,32.8,369.8,32.8,499s92,237,214.1,261.3C369.1,736,461.1,628.3,461.1,499
		S369.1,262.1,247,237.7z"/>
	<circle fill="#BDC3C7" cx="404" cy="318.2" r="9.5"/>
	<circle fill="#BDC3C7" cx="365.9" cy="280.2" r="9.5"/>
	<circle fill="#BDC3C7" cx="404" cy="698.9" r="9.5"/>
	<circle fill="#BDC3C7" cx="365.9" cy="737" r="9.5"/>
	<circle fill="#BDC3C7" cx="470.6" cy="318.2" r="9.5"/>
	<circle fill="#BDC3C7" cx="442.1" cy="356.3" r="9.5"/>
	<circle fill="#BDC3C7" cx="480.1" cy="394.4" r="9.5"/>
	<circle fill="#BDC3C7" cx="480.1" cy="470.5" r="9.5"/>
	<circle fill="#BDC3C7" cx="480.1" cy="546.6" r="9.5"/>
	<circle fill="#BDC3C7" cx="480.1" cy="622.8" r="9.5"/>
	<circle fill="#BDC3C7" cx="442.1" cy="660.8" r="9.5"/>
	<circle fill="#BDC3C7" cx="518.2" cy="432.4" r="9.5"/>
	<circle fill="#BDC3C7" cx="546.8" cy="470.5" r="9.5"/>
	<circle fill="#BDC3C7" cx="518.2" cy="508.6" r="9.5"/>
	<circle fill="#BDC3C7" cx="518.2" cy="584.7" r="9.5"/>
</g>
<path id="frost" class="frost" fill="#A8DDE4" stroke="#000000" stroke-width="0.5" stroke-miterlimit="10" d="M612,314h-31.8l18-31.1l-7.4-4.3
	l-20.4,35.4h-49.3c-0.9-4.5-3.2-8.4-6.5-11.4l24.6-42.7H580v-8.5h-35.9l15.9-27.5l-7.4-4.3L536.7,247l-18-31.1l-7.4,4.3l20.4,35.4
	l-24.6,42.6c-2.1-0.7-4.5-1.1-6.8-1.1c-2.2,0-4.4,0.4-6.4,1l-24.5-42.4l20.4-35.4l-7.4-4.3l-17.9,31.1l-15.9-27.5l-7.4,4.3
	l15.9,27.5h-35.9v8.5H462l24.5,42.4c-3.4,3-5.9,7-6.8,11.6h-48.8l-20.4-35.3l-7.4,4.3l18,31.1h-31.8v8.5H421l-18,31.1l7.4,4.3
	l20.4-35.4h48.8c0.9,4.6,3.4,8.7,6.8,11.6l-24.5,42.4h-40.8v8.5H457l-15.9,27.5l7.4,4.3l15.9-27.5l17.9,31.1l7.4-4.3l-20.4-35.4
	l24.5-42.4c2,0.7,4.2,1,6.4,1c2.4,0,4.7-0.4,6.8-1.1l24.6,42.6l-20.4,35.4l7.4,4.3l18-31.1l15.9,27.5l7.4-4.3L544,385.1h35.9v-8.5
	h-40.8l-24.6-42.7c3.2-3,5.6-6.9,6.5-11.4h49.3l20.4,35.4l7.4-4.3l-18-31.1H612V314z M487.8,318.3c0-6.9,5.6-12.6,12.6-12.6
	s12.6,5.6,12.6,12.6c0,6.9-5.6,12.6-12.6,12.6S487.8,325.3,487.8,318.3z"/>
<g id="wind" class="wind">
	<path fill="#E4ECF4" d="M1.4,623.2c5.3-2.4,11.3-3.8,17.4-3.8h132.7c29.9,0,54.3-24.3,54.3-54.3c0-29.9-24.3-54.3-54.3-54.3
		c-3.3,0-6,2.7-6,6c0,3.3,2.7,6,6,6c23.3,0,42.2,18.9,42.2,42.2s-18.9,42.2-42.2,42.2H18.9c-6.1,0-12,1-17.4,2.9"/>
	<path fill="#E4ECF4" d="M193.7,679.7H73.1c-3.3,0-6,2.7-6,6s2.7,6,6,6h120.6c23.3,0,42.2,18.9,42.2,42.2
		c0,23.3-18.9,42.2-42.2,42.2c-3.3,0-6,2.7-6,6s2.7,6,6,6c29.9,0,54.3-24.3,54.3-54.3S223.6,679.7,193.7,679.7z"/>
	<path fill="#E4ECF4" d="M127.5,571.2c3.3,0,6-2.7,6-6c0-10,8.1-18.1,18.1-18.1c10,0,18.1,8.1,18.1,18.1s-8.1,18.1-18.1,18.1
		c-3.3,0-6,2.7-6,6c0,3.3,2.7,6,6,6c16.6,0,30.2-13.5,30.2-30.2c0-16.6-13.5-30.2-30.2-30.2s-30.2,13.5-30.2,30.2
		C121.4,568.5,124.1,571.2,127.5,571.2z"/>
	<path fill="#E4ECF4" d="M223.9,734c0-16.6-13.5-30.2-30.2-30.2c-3.3,0-6,2.7-6,6c0,3.3,2.7,6,6,6c10,0,18.1,8.1,18.1,18.1
		s-8.1,18.1-18.1,18.1s-18.1-8.1-18.1-18.1c0-3.3-2.7-6-6-6s-6,2.7-6,6c0,16.6,13.5,30.2,30.2,30.2S223.9,750.7,223.9,734z"/>
	<path fill="#E4ECF4" d="M157.5,703.8h-36.2c-3.3,0-6,2.7-6,6s2.7,6,6,6h36.2c3.3,0,6-2.7,6-6S160.9,703.8,157.5,703.8z"/>
	<path fill="#E4ECF4" d="M91.3,595.3h36.2c3.3,0,6-2.7,6-6c0-3.3-2.7-6-6-6H91.3c-3.3,0-6,2.7-6,6C85.2,592.6,88,595.3,91.3,595.3z"
		/>
	<path fill="#E4ECF4" d="M211.9,637.5c0-3.3-2.7-6-6-6h-187c-3.3,0-6,2.7-6,6c0,3.3,2.7,6,6,6h186.9
		C209.1,643.6,211.9,640.8,211.9,637.5z"/>
	<path fill="#E4ECF4" d="M260.1,655.6H43c-3.3,0-6,2.7-6,6s2.7,6,6,6h217.1c3.3,0,6-2.7,6-6C266.1,658.3,263.4,655.6,260.1,655.6z"
		/>
</g>
</svg>
